HIERARCHY
ROOT joint_Root
{
	OFFSET 0.0 0.0 0.0
	CHANNELS 6 Xposition Yposition Zposition Zrotation Xrotation Yrotation 
	JOINT Hips
	{
		OFFSET -17.1583 93.1646 452.98
		CHANNELS 6 Xposition Yposition Zposition Zrotation Xrotation Yrotation 
		JOINT Spine
		{
			OFFSET 15.7357 0.0 0.0
			CHANNELS 6 Xposition Yposition Zposition Zrotation Xrotation Yrotation 
			JOINT Chest
			{
				OFFSET 8.98455 -0.406207 0.0
				CHANNELS 6 Xposition Yposition Zposition Zrotation Xrotation Yrotation 
				JOINT Neck
				{
					OFFSET 16.3773 0.0 0.0
					CHANNELS 6 Xposition Yposition Zposition Zrotation Xrotation Yrotation 
					JOINT Head
					{
						OFFSET 6.45672 0.0 0.0
						CHANNELS 6 Xposition Yposition Zposition Zrotation Xrotation Yrotation 
						End Site
						{
							OFFSET 0.0 0.0 0.0
						}
					}
				}
				JOINT Shoulder_L
				{
					OFFSET 12.9942 -0.242716 4.98039
					CHANNELS 6 Xposition Yposition Zposition Zrotation Xrotation Yrotation 
					JOINT UpperArm_L
					{
						OFFSET 5.34809 0.0 0.0
						CHANNELS 6 Xposition Yposition Zposition Zrotation Xrotation Yrotation 
						JOINT LowerArm_L
						{
							OFFSET 24.3286 1.87007e-05 0.0
							CHANNELS 6 Xposition Yposition Zposition Zrotation Xrotation Yrotation 
							JOINT Hand_L
							{
								OFFSET 22.2916 0.0 0.0
								CHANNELS 6 Xposition Yposition Zposition Zrotation Xrotation Yrotation 
								End Site
								{
									OFFSET 0.0 0.0 0.0
								}
							}
						}
					}
				}
				JOINT Shoulder_R
				{
					OFFSET 12.9945 -0.242716 -4.98039
					CHANNELS 6 Xposition Yposition Zposition Zrotation Xrotation Yrotation 
					JOINT UpperArm_R
					{
						OFFSET -5.34813 0.0 0.0
						CHANNELS 6 Xposition Yposition Zposition Zrotation Xrotation Yrotation 
						JOINT LowerArm_R
						{
							OFFSET -24.3289 0.000322201 0.0
							CHANNELS 6 Xposition Yposition Zposition Zrotation Xrotation Yrotation 
							JOINT Hand_R
							{
								OFFSET -22.2915 -0.000108084 0.0
								CHANNELS 6 Xposition Yposition Zposition Zrotation Xrotation Yrotation 
								End Site
								{
									OFFSET 0.0 0.0 0.0
								}
							}
						}
					}
				}
			}
		}
		JOINT UpperLeg_L
		{
			OFFSET -2.19248 -6.46944 0.0
			CHANNELS 6 Xposition Yposition Zposition Zrotation Xrotation Yrotation 
			JOINT LowerLeg_L
			{
				OFFSET 39.0811 0.0 -1.23785e-05
				CHANNELS 6 Xposition Yposition Zposition Zrotation Xrotation Yrotation 
				JOINT Foot_L
				{
					OFFSET 40.9854 0.0 -1.26872e-05
					CHANNELS 6 Xposition Yposition Zposition Zrotation Xrotation Yrotation 
					JOINT Toes_L
					{
						OFFSET 11.7543 0.0 0.0
						CHANNELS 6 Xposition Yposition Zposition Zrotation Xrotation Yrotation 
						End Site
						{
							OFFSET 0.0 0.0 0.0
						}
					}
				}
			}
		}
		JOINT UpperLeg_R
		{
			OFFSET -2.19251 6.46944 0.0
			CHANNELS 6 Xposition Yposition Zposition Zrotation Xrotation Yrotation 
			JOINT LowerLeg_R
			{
				OFFSET -39.0811 -0.00228153 -0.0401928
				CHANNELS 6 Xposition Yposition Zposition Zrotation Xrotation Yrotation 
				JOINT Foot_R
				{
					OFFSET -40.9854 0.0 0.0
					CHANNELS 6 Xposition Yposition Zposition Zrotation Xrotation Yrotation 
					JOINT Toes_R
					{
						OFFSET -11.7543 0.0 0.0
						CHANNELS 6 Xposition Yposition Zposition Zrotation Xrotation Yrotation 
						End Site
						{
							OFFSET 0.0 0.0 0.0
						}
					}
				}
			}
		}
	}
}
MOTION
Frames:	9
Frame Time:	0.0333333
0.000000 0.000000 0.000000 0.000000 0.000000 -0.000000 -2.086140 92.901800 1.969150 86.807800 -5.167150 1.047930 15.735700 0.000005 -0.000001 72.010800 87.225900 -64.900500 8.984550 -0.406207 -0.000000 -2.304890 -2.336020 14.174800 16.377300 -0.000001 -0.000001 1.154910 9.282010 1.292610 6.456720 -0.000001 -0.000000 0.745754 11.160600 13.500700 12.994200 -0.242716 4.980390 -89.132300 -1.818910 -64.491600 5.348090 -0.000007 -0.000001 -39.484700 -61.487900 -86.280300 24.328600 0.000019 0.000005 47.882100 39.087500 -60.314900 22.291600 -0.000001 0.000005 69.533200 4.578670 15.266800 12.994500 -0.242716 -4.980390 89.443300 1.980950 -74.299400 -5.348130 -0.000001 -0.000004 -63.461400 6.373590 -4.624790 -24.328900 0.000322 -0.000009 0.880796 3.590130 -13.809900 -22.291500 -0.000108 -0.000004 7.584290 5.211230 2.436060 -2.192480 -6.469440 -0.000000 -170.652000 -10.847600 2.211450 39.081100 -0.000007 -0.000012 0.037948 -0.144035 14.760000 40.985400 -0.000006 -0.000013 -2.139480 12.103800 -70.090800 11.754300 -0.000000 0.000003 -0.001514 0.190084 -8.865460 -2.192510 6.469440 -0.000001 179.638000 2.169950 -178.224000 -39.081100 -0.002282 -0.040193 0.025572 -0.103602 12.113900 -40.985400 0.000008 0.000006 -3.341710 7.337040 -68.326200 -11.754300 -0.000006 -0.000006 -0.011636 0.283151 -5.066210
0.000000 0.000000 0.000000 0.000000 0.000000 -0.000000 -2.028920 92.898700 1.983770 86.821200 -5.257850 1.132800 15.735700 0.000005 -0.000001 72.010000 87.215300 -64.837600 8.984550 -0.406207 -0.000000 -2.282190 -2.346610 14.299100 16.377300 -0.000001 -0.000001 1.124660 8.919910 1.626640 6.456720 -0.000001 -0.000000 0.962150 10.763400 13.657300 12.994200 -0.242716 4.980390 -89.161000 -1.750720 -64.390200 5.348090 -0.000007 -0.000001 -34.052300 -61.043900 -81.621600 24.328600 0.000019 0.000005 48.545000 40.658600 -60.077700 22.291600 -0.000001 0.000005 66.956100 4.643100 14.139500 12.994500 -0.242716 -4.980390 89.408800 2.110090 -74.345200 -5.348130 -0.000001 -0.000004 -63.817300 7.161460 -5.545500 -24.328900 0.000322 -0.000009 0.851309 3.241780 -14.740000 -22.291500 -0.000108 -0.000004 7.463100 5.219120 2.235180 -2.192480 -6.469440 -0.000000 -170.697000 -10.859600 2.316900 39.081100 -0.000007 -0.000012 0.037766 -0.143179 14.776500 40.985400 -0.000006 -0.000013 -2.102380 12.020500 -70.097600 11.754300 -0.000000 0.000003 -0.001521 0.190185 -8.861380 -2.192510 6.469440 -0.000001 179.564000 2.216200 -178.142000 -39.081100 -0.002282 -0.040193 0.024964 -0.100762 12.115000 -40.985400 0.000008 0.000006 -3.364880 7.464770 -68.283300 -11.754300 -0.000006 -0.000006 -0.011291 0.280708 -5.166210
0.000000 0.000000 0.000000 0.000000 0.000000 -0.000000 -1.994010 92.893700 2.002620 86.821700 -5.238450 1.247900 15.735700 0.000005 -0.000001 71.704300 87.194500 -64.447200 8.984550 -0.406207 -0.000000 -2.246330 -2.392980 14.468200 16.377300 -0.000001 -0.000001 1.153600 8.437760 2.123430 6.456720 -0.000001 -0.000000 1.136030 10.256400 13.729400 12.994200 -0.242716 4.980390 -89.200300 -1.668400 -64.386800 5.348090 -0.000007 -0.000001 -32.345600 -60.174100 -79.451800 24.328600 0.000019 0.000005 41.223700 39.098400 -54.252700 22.291600 -0.000001 0.000005 58.935200 4.751720 12.208700 12.994500 -0.242716 -4.980390 89.355800 2.289780 -74.283300 -5.348130 -0.000001 -0.000004 -64.075600 7.897840 -6.322070 -24.328900 0.000322 -0.000009 0.817199 2.872250 -15.908800 -22.291500 -0.000108 -0.000004 7.354560 5.222740 2.142520 -2.192480 -6.469440 -0.000000 -170.704000 -10.802200 2.432590 39.081100 -0.000007 -0.000012 0.038194 -0.144542 14.801600 40.985400 -0.000006 -0.000013 -2.072960 12.001600 -70.090200 11.754300 -0.000000 0.000003 -0.001172 0.185446 -9.054000 -2.192510 6.469440 -0.000001 179.539000 2.164680 -178.008000 -39.081100 -0.002282 -0.040193 0.024466 -0.098454 12.113600 -40.985400 0.000008 0.000006 -3.402260 7.418890 -68.298800 -11.754300 -0.000006 -0.000006 -0.011472 0.281991 -5.113700
0.000000 0.000000 0.000000 0.000000 0.000000 -0.000000 -1.988260 92.874900 2.042490 86.830100 -5.080100 1.399960 15.735700 0.000005 -0.000001 70.669000 87.131500 -63.318500 8.984550 -0.406207 -0.000000 -2.148170 -2.532440 14.654600 16.377300 -0.000001 -0.000001 1.148070 7.937090 2.689980 6.456720 -0.000001 -0.000000 1.220110 9.845020 13.766700 12.994200 -0.242716 4.980390 -89.310300 -1.451450 -64.579000 5.348090 -0.000007 -0.000001 -33.474200 -59.222700 -79.286500 24.328600 0.000019 0.000005 33.203900 37.530800 -47.049800 22.291600 -0.000001 0.000005 54.765600 4.730580 12.605800 12.994500 -0.242716 -4.980390 89.295100 2.495490 -74.221300 -5.348130 -0.000001 -0.000004 -64.227300 8.717330 -6.979910 -24.328900 0.000322 -0.000009 0.754926 2.451220 -17.147500 -22.291500 -0.000108 -0.000004 7.298650 5.234360 1.842240 -2.192480 -6.469440 -0.000000 -170.674000 -10.753200 2.496090 39.081100 -0.000007 -0.000012 0.038201 -0.142993 14.957500 40.985400 -0.000006 -0.000013 -2.024060 12.159000 -70.129800 11.754300 -0.000000 0.000003 -0.001218 0.186087 -9.027980 -2.192510 6.469440 -0.000001 179.543000 2.143100 -177.885000 -39.081100 -0.002282 -0.040193 0.025601 -0.102561 12.248800 -40.985400 0.000008 0.000006 -3.370830 7.224930 -68.393000 -11.754300 -0.000006 -0.000006 -0.011497 0.282169 -5.106410
0.000000 0.000000 0.000000 0.000000 0.000000 -0.000000 -1.985110 92.856000 2.099800 86.867300 -4.918080 1.665150 15.735700 0.000005 -0.000001 69.475000 87.010800 -62.038200 8.984550 -0.406207 -0.000000 -1.947500 -2.723820 14.827800 16.377300 -0.000001 -0.000001 1.046020 7.571130 3.231950 6.456720 -0.000001 -0.000000 1.255860 9.657750 13.878700 12.994200 -0.242716 4.980390 -89.389700 -1.293790 -64.743600 5.348090 -0.000007 -0.000001 -35.695200 -58.185300 -79.387000 24.328600 0.000019 0.000005 24.226200 34.483100 -38.472100 22.291600 -0.000001 0.000005 54.498800 4.707520 13.022000 12.994500 -0.242716 -4.980390 89.235900 2.691570 -74.144800 -5.348130 -0.000001 -0.000004 -64.284700 9.602680 -7.566850 -24.328900 0.000322 -0.000009 0.682536 2.075690 -18.233600 -22.291500 -0.000108 -0.000004 7.059030 5.245750 1.544740 -2.192480 -6.469440 -0.000000 -170.622000 -10.809000 2.726170 39.081100 -0.000007 -0.000012 0.036385 -0.135368 15.044900 40.985400 -0.000006 -0.000013 -1.988570 12.377500 -70.162700 11.754300 -0.000000 0.000003 -0.001140 0.184998 -9.072220 -2.192510 6.469440 -0.000001 179.525000 2.119560 -177.630000 -39.081100 -0.002282 -0.040193 0.026972 -0.107595 12.390400 -40.985400 0.000008 0.000006 -3.290040 7.066090 -68.556100 -11.754300 -0.000006 -0.000006 -0.011677 0.283435 -5.054570
0.000000 0.000000 0.000000 0.000000 0.000000 -0.000000 -1.990730 92.831400 2.149690 86.909900 -4.777950 1.864530 15.735700 0.000005 -0.000001 68.407100 86.911700 -60.890400 8.984550 -0.406207 -0.000000 -1.788980 -2.897050 14.988400 16.377300 -0.000001 -0.000001 0.944645 7.264910 3.725410 6.456720 -0.000001 -0.000000 1.186830 9.579220 14.072500 12.994200 -0.242716 4.980390 -89.432300 -1.209070 -64.844500 5.348090 -0.000007 -0.000001 -37.062900 -57.154700 -78.186800 24.328600 0.000019 0.000005 16.410300 30.367500 -30.218900 22.291600 -0.000001 0.000005 53.631300 4.650020 14.048800 12.994500 -0.242716 -4.980390 89.176800 2.880220 -74.042300 -5.348130 -0.000001 -0.000004 -64.316700 10.299400 -7.977830 -24.328900 0.000322 -0.000009 0.664286 1.914890 -19.164400 -22.291500 -0.000108 -0.000004 6.861830 5.249680 1.441130 -2.192480 -6.469440 -0.000000 -170.585000 -10.875900 2.861990 39.081100 -0.000007 -0.000012 0.035176 -0.129600 15.185400 40.985400 -0.000006 -0.000013 -1.944200 12.615400 -70.210700 11.754300 -0.000000 0.000003 -0.001253 0.186572 -9.008240 -2.192510 6.469440 -0.000001 179.515000 2.143890 -177.476000 -39.081100 -0.002282 -0.040193 0.030134 -0.120016 12.587600 -40.985400 0.000008 0.000006 -3.083260 6.898200 -68.744300 -11.754300 -0.000006 -0.000006 -0.011706 0.283639 -5.046220
0.000000 0.000000 0.000000 0.000000 0.000000 -0.000000 -2.019120 92.821600 2.208810 86.937500 -4.654460 1.969990 15.735700 0.000005 -0.000001 67.446700 86.835600 -59.857600 8.984550 -0.406207 -0.000000 -1.674350 -3.049790 15.133700 16.377300 -0.000001 -0.000001 0.893408 6.972160 4.201940 6.456720 -0.000001 -0.000000 0.943317 9.420810 14.253800 12.994200 -0.242716 4.980390 -89.421400 -1.234180 -64.880600 5.348090 -0.000007 -0.000001 -35.743300 -56.058400 -74.391100 24.328600 0.000019 0.000005 10.240000 26.393800 -22.109400 22.291600 -0.000001 0.000005 50.404400 4.603560 14.857800 12.994500 -0.242716 -4.980390 89.131500 3.015470 -73.924200 -5.348130 -0.000001 -0.000004 -64.350500 10.840200 -8.265120 -24.328900 0.000322 -0.000009 0.625918 1.747130 -19.744700 -22.291500 -0.000108 -0.000004 6.586020 5.252440 1.368170 -2.192480 -6.469440 -0.000000 -170.540000 -10.919600 3.005530 39.081100 -0.000007 -0.000012 0.033933 -0.125349 15.147700 40.985400 -0.000006 -0.000013 -1.937100 12.816600 -70.186000 11.754300 -0.000000 0.000003 -0.001211 0.185992 -9.031810 -2.192510 6.469440 -0.000001 179.529000 2.126450 -177.325000 -39.081100 -0.002282 -0.040193 0.031768 -0.127075 12.612600 -40.985400 0.000008 0.000006 -2.932780 6.712100 -68.889900 -11.754300 -0.000006 -0.000006 -0.012180 0.286930 -4.911420
0.000000 0.000000 0.000000 0.000000 0.000000 -0.000000 -2.044900 92.802800 2.249140 86.974900 -4.581350 2.038820 15.735700 0.000005 -0.000001 67.248000 86.793000 -59.596900 8.984550 -0.406207 -0.000000 -1.598230 -3.102960 15.258800 16.377300 -0.000001 -0.000001 0.839166 6.587980 4.667910 6.456720 -0.000001 -0.000000 0.712618 9.060920 14.382500 12.994200 -0.242716 4.980390 -89.296500 -1.499090 -64.855600 5.348090 -0.000007 -0.000001 -33.718700 -54.351500 -69.736800 24.328600 0.000019 0.000005 5.467730 22.640400 -13.956800 22.291600 -0.000001 0.000005 45.201600 4.538030 15.979200 12.994500 -0.242716 -4.980390 89.093900 3.121570 -73.804300 -5.348130 -0.000001 -0.000004 -64.382400 11.038800 -8.342920 -24.328900 0.000322 -0.000009 0.589407 1.627800 -19.940700 -22.291500 -0.000108 -0.000004 6.551260 5.253660 1.335750 -2.192480 -6.469440 -0.000000 -170.536000 -10.963000 3.039580 39.081100 -0.000007 -0.000012 0.034584 -0.126855 15.250000 40.985400 -0.000006 -0.000013 -1.925120 12.913000 -70.270000 11.754300 -0.000000 0.000003 -0.001419 0.188815 -8.917080 -2.192510 6.469440 -0.000001 179.536000 2.054820 -177.303000 -39.081100 -0.002282 -0.040193 0.034656 -0.138141 12.775000 -40.985400 0.000008 0.000006 -2.791810 6.558230 -68.997700 -11.754300 -0.000006 -0.000006 -0.011340 0.281060 -5.151810
0.000000 0.000000 0.000000 0.000000 0.000000 -0.000000 -2.056890 92.807200 2.278820 87.037000 -4.490680 2.012170 15.735700 0.000005 -0.000001 67.155600 86.773000 -59.453900 8.984550 -0.406207 -0.000000 -1.561670 -3.129620 15.360700 16.377300 -0.000001 -0.000001 0.763527 6.079880 5.334000 6.456720 -0.000001 -0.000000 0.548902 8.645310 14.191900 12.994200 -0.242716 4.980390 -89.107800 -1.885100 -64.667000 5.348090 -0.000007 -0.000001 -34.189000 -52.444600 -67.038800 24.328600 0.000019 0.000005 2.068340 19.713200 -6.106130 22.291600 -0.000001 0.000005 38.157700 4.335210 19.296500 12.994500 -0.242716 -4.980390 89.068100 3.187650 -73.694400 -5.348130 -0.000001 -0.000004 -64.333200 11.051500 -8.372650 -24.328900 0.000322 -0.000009 0.523731 1.471800 -19.626600 -22.291500 -0.000108 -0.000004 6.514890 5.254680 1.308960 -2.192480 -6.469440 -0.000000 -170.600000 -10.825500 3.102350 39.081100 -0.000007 -0.000012 0.034445 -0.127974 15.064500 40.985400 -0.000006 -0.000013 -1.962730 12.875700 -70.177500 11.754300 -0.000000 0.000003 -0.001100 0.184441 -9.094850 -2.192510 6.469440 -0.000001 179.489000 2.031950 -177.315000 -39.081100 -0.002282 -0.040193 0.034932 -0.139117 12.796500 -40.985400 0.000008 0.000006 -2.862700 6.482650 -69.073100 -11.754300 -0.000006 -0.000006 -0.011835 0.284540 -5.009300
